<svg width="57" height="57" viewBox="0 0 57 57" fill="none" xmlns="http://www.w3.org/2000/svg">
<path d="M28.5 0.395874C21.0464 0.395874 13.8979 3.35684 8.62739 8.62739C3.35684 13.8979 0.395874 21.0464 0.395874 28.5C0.395874 35.9537 3.35684 43.1021 8.62739 48.3727C13.8979 53.6432 21.0464 56.6042 28.5 56.6042C35.9537 56.6042 43.1021 53.6432 48.3727 48.3727C53.6432 43.1021 56.6042 35.9537 56.6042 28.5C56.6042 21.0464 53.6432 13.8979 48.3727 8.62739C43.1021 3.35684 35.9537 0.395874 28.5 0.395874Z" fill="#039BE5"/>
<path d="M32.3044 35.9491H39.5775L40.7194 28.5606H32.3029V24.5225C32.3029 21.4533 33.3058 18.7316 36.1769 18.7316H40.7904V12.2839C39.9798 12.1744 38.2655 11.9348 35.0261 11.9348C28.2619 11.9348 24.2962 15.507 24.2962 23.6454V28.5606H17.3427V35.9491H24.2962V56.2566C25.6733 56.4636 27.0682 56.6042 28.5 56.6042C29.7943 56.6042 31.0575 56.4858 32.3044 56.3172V35.9491Z" fill="white"/>
</svg>
