<svg width="56" height="55" viewBox="0 0 56 55" fill="none" xmlns="http://www.w3.org/2000/svg">
<path d="M28 0C43.4642 0 56 12.6228 56 28.1943C56 40.7125 47.894 51.3195 36.6812 55C36.6847 54.9894 36.6893 54.9742 36.6893 54.9742C36.6893 54.9742 34.7993 54.0825 34.839 52.4907C34.8833 50.7391 34.839 46.651 34.839 45.1508C34.839 42.5745 33.2197 40.749 33.2197 40.749C33.2197 40.749 45.9177 40.8923 45.9177 27.2498C45.9177 21.9857 43.1853 19.2473 43.1853 19.2473C43.1853 19.2473 44.6203 13.6272 42.6883 11.2448C40.523 11.0099 36.645 13.3288 34.9883 14.4132C34.9883 14.4132 32.3633 13.33 27.9988 13.33C23.6332 13.33 21.0093 14.4132 21.0093 14.4132C19.3538 13.33 15.4747 11.0099 13.3093 11.2448C11.3773 13.6284 12.8123 19.2473 12.8123 19.2473C12.8123 19.2473 10.08 21.9868 10.08 27.2498C10.08 40.8923 22.778 40.749 22.778 40.749C22.778 40.749 21.4982 42.2045 21.2193 44.3449C20.3327 44.648 19.0295 45.0216 17.976 45.0216C15.2203 45.0216 13.1238 42.3243 12.3562 41.0767C11.599 39.8456 10.0462 38.813 8.59833 38.813C7.64517 38.813 7.17967 39.2934 7.17967 39.842C7.17967 40.3907 8.51667 40.7736 9.39867 41.791C11.2583 43.9361 11.2245 48.7608 17.8512 48.7608C18.571 48.7608 20.0398 48.5823 21.1447 48.4331C21.1377 49.952 21.1365 51.5544 21.1598 52.4907C21.1995 54.0825 19.3095 54.9742 19.3095 54.9742C19.3095 54.9742 19.3142 54.9894 19.3177 55C8.106 51.3195 0 40.7125 0 28.1943C0 12.6228 12.5358 0 28 0Z" fill="white"/>
</svg>
