<svg width="58" height="61" viewBox="0 0 58 61" fill="none" xmlns="http://www.w3.org/2000/svg">
<path d="M52.6967 25.5222H50.75V25.4167H29V35.5834H42.6578C40.6653 41.5016 35.3112 45.75 29 45.75C20.9924 45.75 14.5 38.9219 14.5 30.5C14.5 22.0782 20.9924 15.25 29 15.25C32.6963 15.25 36.0591 16.7166 38.6196 19.1121L45.4551 11.923C41.139 7.69239 35.3655 5.08337 29 5.08337C15.654 5.08337 4.83337 16.4637 4.83337 30.5C4.83337 44.5364 15.654 55.9167 29 55.9167C42.3461 55.9167 53.1667 44.5364 53.1667 30.5C53.1667 28.7959 53 27.1323 52.6967 25.5222Z" fill="#FFC107"/>
<path d="M7.61975 18.6699L15.5597 24.794C17.7081 19.1998 22.9112 15.25 29 15.25C32.6963 15.25 36.0591 16.7166 38.6195 19.1121L45.4551 11.923C41.1389 7.69239 35.3655 5.08337 29 5.08337C19.7176 5.08337 11.6677 10.595 7.61975 18.6699Z" fill="#FF3D00"/>
<path d="M29 55.9167C35.2422 55.9167 40.9141 53.4042 45.2025 49.3185L37.7229 42.6619C35.2966 44.5948 32.2806 45.75 29 45.75C22.7142 45.75 17.377 41.5347 15.3663 35.652L7.4856 42.0379C11.4852 50.2691 19.6076 55.9167 29 55.9167Z" fill="#4CAF50"/>
<path d="M52.6966 25.5221H50.75V25.4166H29V35.5833H42.6578C41.7008 38.4261 39.962 40.8776 37.7193 42.6631L37.723 42.6606L45.2025 49.3172C44.6733 49.823 53.1667 43.2083 53.1667 30.5C53.1667 28.7958 52.9999 27.1323 52.6966 25.5221Z" fill="#1976D2"/>
</svg>
